# xmcd CD database file
#
# Track frame offsets:
#	150
#	23376
#	43825
#	61688
#	83176
#	101353
#	120472
#	141334
#	169296
#	185941
#	203852
#	224154
#	236988
#	252835
#
# Disc length: 3738 seconds
#
# Revision: 0
# Processed by: cddbd v1.5.1PL2 Copyright (c) Steve Scherf et al.
# Submitted via: CDex 1.51
#
DISCID=ce0e980e
DTITLE=Rios, Walter and Fernandez, Fats - Soundtracks
DYEAR=2000
DGENRE=Jazz
TTITLE0=Los fabulosos Baker Boys
TTITLE1=Qué harás el resto de tu vida
TTITLE2=Mañana de carnaval
TTITLE3=Taxi driver
TTITLE4=Los paraguas de Cherburgo
TTITLE5=Gotas de lluvia caen sobre mi cabeza
TTITLE6=A la hora señalada
TTITLE7=Alfie
TTITLE8=Perdidos en la noche
TTITLE9=El Padrino
TTITLE10=Chinatown
TTITLE11=La Misión
TTITLE12=Romanza para Dad
TTITLE13=Ideas para Soundtrack
EXTD=YEAR: 2000
EXTT0=
EXTT1=
EXTT2=
EXTT3=
EXTT4=
EXTT5=
EXTT6=
EXTT7=
EXTT8=
EXTT9=
EXTT10=
EXTT11=
EXTT12=
EXTT13=
PLAYORDER=
